<?xml version="1.0" encoding="UTF-8"?>
<svg id="Layer_2" data-name="Layer 2" xmlns="http://www.w3.org/2000/svg" viewBox="0 0 259.8 342">
  <defs>
    <style>
      .cls-1 {
        fill: #4069a6;
        fill-rule: evenodd;
      }

      .cls-2 {
        fill: #231f20;
      }

      .cls-3 {
        fill: #010101;
      }
    </style>
  </defs>
  <g id="Layer_1-2" data-name="Layer 1">
    <polygon class="cls-1" points="259.8 43.23 259.8 0 129.9 0 0 0 0 43.23 84.51 68.18 84.51 113.87 84.51 246.58 0 271.53 0 315.57 129.9 315.57 259.8 315.57 259.8 271.53 175.29 246.58 175.29 113.87 175.29 68.18 259.8 43.23"/>
    <rect class="cls-2" x="197.45" y="332.22" width="62.15" height="2.65"/>
    <rect class="cls-2" x=".2" y="332.22" width="62.16" height="2.65"/>
    <path class="cls-3" d="M71.63,341.75c-.77-.16-1.49-.4-2.17-.71-.68-.31-1.28-.69-1.82-1.13l1.47-2.62c.65,.53,1.4,.95,2.25,1.24,.85,.29,1.72,.43,2.62,.43,1.04,0,1.84-.18,2.41-.53,.57-.35,.86-.85,.86-1.49h0c0-.46-.13-.82-.38-1.08-.26-.26-.59-.46-1-.58s-.94-.24-1.58-.34c-.02,0-.04-.01-.06-.01s-.04,0-.06-.01l-.26-.03c-1.13-.18-2.07-.4-2.81-.67-.74-.27-1.37-.73-1.89-1.4-.52-.67-.78-1.62-.78-2.85h0c0-1.1,.24-2.03,.73-2.81,.49-.77,1.2-1.36,2.12-1.77,.93-.41,2.05-.61,3.37-.61,.6,0,1.22,.07,1.85,.21,.63,.14,1.25,.34,1.85,.6,.6,.26,1.18,.58,1.72,.95l-1.35,2.69c-.65-.45-1.33-.8-2.04-1.04-.71-.25-1.39-.37-2.04-.37-.97,0-1.73,.16-2.26,.48-.53,.32-.8,.77-.8,1.35h0c0,.5,.14,.88,.42,1.17,.28,.28,.62,.49,1.03,.62,.41,.13,.99,.27,1.73,.42,.03,0,.06,.01,.09,.02,.03,0,.06,.01,.09,.02,.05,0,.09,.02,.13,.03,.04,.01,.09,.02,.13,.03,1.07,.21,1.96,.46,2.68,.76,.72,.3,1.31,.78,1.79,1.44,.48,.66,.72,1.56,.72,2.71v.02c0,1.07-.25,2-.76,2.76-.5,.77-1.24,1.35-2.2,1.75-.96,.4-2.12,.6-3.48,.6-.8,0-1.59-.08-2.36-.24"/>
    <path class="cls-3" d="M84.7,324.95h3.18v3.18h-3.18v-3.18Zm0,4.83h3.18v12.05h-3.18v-12.05Z"/>
    <path class="cls-3" d="M92.62,329.78h3.18v12.05h-3.18v-12.05Zm6.96,4.75c0-.59-.17-1.04-.51-1.37-.34-.32-.81-.49-1.43-.49s-1.04,.16-1.36,.49c-.32,.33-.48,.79-.48,1.39l-.24-2.67c.36-.76,.8-1.33,1.31-1.71,.51-.38,1.14-.57,1.91-.57,1.27,0,2.25,.43,2.95,1.28,.7,.85,1.04,2.06,1.04,3.63v7.31h-3.18v-7.3Z"/>
    <path class="cls-3" d="M109.83,341.34c-.82-.44-1.44-1.07-1.86-1.91-.43-.84-.64-1.84-.64-3.02v-1.29c0-1.17,.21-2.16,.64-2.99,.43-.82,1.05-1.45,1.86-1.89,.82-.43,1.8-.65,2.94-.65,.66,0,1.28,.08,1.86,.23,.58,.15,1.11,.37,1.57,.66,.46,.29,.85,.63,1.16,1.04l-2.06,2c-.29-.27-.64-.48-1.03-.63-.39-.15-.81-.23-1.24-.23-.81,0-1.43,.21-1.87,.64-.44,.43-.66,1.04-.66,1.82v1.29c0,.81,.22,1.43,.66,1.86,.44,.44,1.06,.65,1.87,.65,.44,0,.86-.08,1.25-.24,.4-.16,.74-.4,1.02-.7l2.06,2.11c-.32,.4-.71,.74-1.17,1.03-.46,.28-.99,.5-1.57,.64-.58,.15-1.2,.22-1.86,.22-1.14,0-2.13-.22-2.94-.66"/>
    <path class="cls-3" d="M123.49,341.37c-.82-.42-1.45-1.04-1.89-1.85-.43-.81-.65-1.78-.65-2.92v-1.36c0-1.19,.21-2.21,.62-3.05,.41-.84,1.02-1.49,1.81-1.93,.79-.44,1.75-.66,2.87-.66,1.05,0,1.95,.26,2.7,.79,.75,.53,1.32,1.29,1.71,2.29,.39,1,.59,2.21,.59,3.63v.79h-8.24v-2.15h5.34l-.04-.28c-.08-.7-.3-1.24-.65-1.61-.35-.38-.82-.57-1.41-.57-.77,0-1.36,.23-1.78,.68-.42,.46-.63,1.1-.63,1.94v1.53c0,.82,.23,1.45,.69,1.9,.46,.45,1.1,.67,1.93,.67,.43,0,.85-.07,1.26-.23s.8-.36,1.14-.64l2.08,1.84c-.63,.57-1.33,1.02-2.11,1.33-.78,.31-1.57,.47-2.37,.47-1.16,0-2.15-.21-2.98-.63"/>
    <polygon class="cls-3" points="146.09 341.82 142.91 341.82 142.91 328.69 140.86 329.47 140.86 326.09 143.38 324.95 146.09 324.95 146.09 341.82"/>
    <path class="cls-3" d="M156.87,333.45l.57,.42c-.19,.35-.49,.62-.88,.78-.39,.17-.85,.25-1.39,.25-.85,0-1.6-.2-2.25-.61-.65-.41-1.15-.99-1.5-1.74-.36-.75-.53-1.61-.53-2.59h0c0-1.1,.19-2.03,.58-2.81,.39-.77,.95-1.36,1.69-1.76,.74-.4,1.63-.6,2.68-.6s1.93,.21,2.66,.62c.74,.41,1.3,1.01,1.69,1.79,.39,.78,.58,1.72,.58,2.82h0c0,.58-.08,1.19-.24,1.84-.16,.65-.39,1.36-.68,2.12-.04,.11-.08,.22-.12,.33-.04,.11-.09,.21-.13,.31l-3.02,7.23h-3.37l3.67-8.38Zm.26-2.06c.31-.36,.46-.87,.46-1.53h0c0-.65-.15-1.14-.46-1.48-.31-.34-.74-.52-1.29-.52s-1,.17-1.31,.52c-.31,.35-.46,.84-.46,1.47h0c0,.67,.15,1.17,.46,1.53,.31,.35,.74,.53,1.31,.53s.99-.18,1.29-.54"/>
    <path class="cls-3" d="M170.85,333.45l.57,.42c-.19,.35-.49,.62-.88,.78-.39,.17-.85,.25-1.39,.25-.85,0-1.6-.2-2.25-.61-.65-.41-1.15-.99-1.5-1.74-.36-.75-.53-1.61-.53-2.59h0c0-1.1,.19-2.03,.58-2.81,.39-.77,.95-1.36,1.69-1.76,.74-.4,1.63-.6,2.68-.6s1.92,.21,2.66,.62c.74,.41,1.3,1.01,1.69,1.79,.39,.78,.58,1.72,.58,2.82h0c0,.58-.08,1.19-.24,1.84-.16,.65-.39,1.36-.68,2.12-.04,.11-.08,.22-.12,.33-.04,.11-.09,.21-.13,.31l-3.02,7.23h-3.37l3.67-8.38Zm.26-2.06c.31-.36,.46-.87,.46-1.53h0c0-.65-.15-1.14-.46-1.48-.31-.34-.74-.52-1.29-.52s-1,.17-1.31,.52c-.31,.35-.46,.84-.46,1.47h0c0,.67,.15,1.17,.46,1.53,.31,.35,.74,.53,1.31,.53s.99-.18,1.29-.54"/>
    <path class="cls-3" d="M184.83,333.45l.57,.42c-.19,.35-.49,.62-.88,.78-.39,.17-.85,.25-1.39,.25-.85,0-1.6-.2-2.25-.61-.65-.41-1.15-.99-1.5-1.74-.36-.75-.53-1.61-.53-2.59h0c0-1.1,.19-2.03,.58-2.81,.39-.77,.95-1.36,1.69-1.76,.74-.4,1.63-.6,2.68-.6s1.92,.21,2.66,.62c.74,.41,1.3,1.01,1.69,1.79,.39,.78,.58,1.72,.58,2.82h0c0,.58-.08,1.19-.24,1.84-.16,.65-.39,1.36-.68,2.12-.04,.11-.08,.22-.12,.33-.04,.11-.09,.21-.13,.31l-3.02,7.23h-3.37l3.67-8.38Zm.26-2.06c.31-.36,.46-.87,.46-1.53h0c0-.65-.15-1.14-.46-1.48-.31-.34-.74-.52-1.29-.52s-1,.17-1.31,.52c-.31,.35-.46,.84-.46,1.47h0c0,.67,.15,1.17,.46,1.53,.31,.35,.74,.53,1.31,.53s.99-.18,1.29-.54"/>
  </g>
</svg>