<?xml version="1.0" encoding="UTF-8"?>
<svg id="Layer_2" data-name="Layer 2" xmlns="http://www.w3.org/2000/svg" viewBox="0 0 664.49 102.24">
  <defs>
    <style>
      .cls-1 {
        fill: #4069a6;
        fill-rule: evenodd;
      }

      .cls-2 {
        fill: #231f20;
      }

      .cls-3 {
        fill: #010101;
      }
    </style>
  </defs>
  <g id="Layer_1-2" data-name="Layer 1">
    <polygon class="cls-1" points="664.49 14.01 664.49 0 622.41 0 580.32 0 580.32 14.01 607.7 22.09 607.7 36.89 607.7 79.89 580.32 87.97 580.32 102.24 622.41 102.24 664.49 102.24 664.49 87.97 637.11 79.89 637.11 36.89 637.11 22.09 664.49 14.01"/>
    <g>
      <rect class="cls-2" x="373.63" y="86.78" width="165.96" height="2.36"/>
      <rect class="cls-2" x="4.01" y="86.78" width="165.96" height="2.36"/>
      <path class="cls-3" d="M209.91,81.31h-2.64c-.06-2.86-1.89-4.3-5.5-4.3-1.47,0-2.66,.33-3.56,1-.9,.67-1.35,1.54-1.35,2.62,0,.82,.27,1.47,.81,1.95,.54,.48,1.48,.9,2.81,1.24l5.22,1.35c3.32,.88,4.97,2.72,4.97,5.53,0,2.03-.81,3.67-2.43,4.94-1.43,1.1-3.49,1.66-6.17,1.66-3.4,0-5.86-1.02-7.4-3.07-.82-1.11-1.25-2.59-1.29-4.45h2.64v.06c0,1.6,.55,2.83,1.64,3.7,1.09,.87,2.62,1.31,4.59,1.31,1.8,0,3.14-.3,4.02-.89,1.04-.72,1.57-1.72,1.57-3.01,0-1.64-1.34-2.8-4.02-3.47l-5.47-1.41c-2.87-.74-4.3-2.43-4.3-5.07,0-2.09,.79-3.71,2.36-4.85,1.37-1,3.18-1.51,5.43-1.51,3.19,0,5.48,.93,6.85,2.79,.8,1.09,1.2,2.26,1.2,3.53v.34Z"/>
      <path class="cls-3" d="M217.74,75.01c.43,0,.79,.15,1.09,.45,.3,.3,.45,.65,.45,1.06,0,.43-.15,.79-.45,1.09-.3,.3-.66,.44-1.09,.44s-.76-.15-1.06-.44c-.3-.3-.45-.66-.45-1.09s.15-.76,.45-1.06,.65-.45,1.06-.45m1.2,21.95h-2.49v-15.78h2.49v15.78Z"/>
      <path class="cls-3" d="M225.66,81.18h2.33v2.67c1.27-2.01,3.01-3.01,5.22-3.01,1.54,0,2.75,.38,3.65,1.15,.9,.77,1.35,1.8,1.35,3.09v11.88h-2.49v-10.87c0-.94-.29-1.69-.88-2.24-.58-.55-1.38-.83-2.38-.83-1.31,0-2.35,.48-3.13,1.44-.78,.96-1.17,2.24-1.17,3.84v8.66h-2.52v-15.78Z"/>
      <path class="cls-3" d="M256.89,86.46h-2.52c-.31-2.21-1.56-3.32-3.75-3.32-1.37,0-2.45,.54-3.22,1.63-.78,1.08-1.17,2.59-1.17,4.51s.46,3.36,1.38,4.36c.78,.88,1.82,1.32,3.13,1.32,2.11,0,3.37-1.15,3.78-3.44h2.55c-.16,1.96-.87,3.45-2.12,4.45-1.08,.88-2.51,1.32-4.27,1.32-2.31,0-4.11-.82-5.4-2.46-1.11-1.41-1.66-3.27-1.66-5.56,0-2.74,.73-4.89,2.18-6.45,1.25-1.33,2.86-2,4.85-2,2.29,0,4.01,.77,5.16,2.3,.59,.8,.95,1.9,1.08,3.32"/>
      <path class="cls-3" d="M275.62,89.81h-11.64c.02,1.35,.31,2.43,.86,3.22,.88,1.29,2.15,1.93,3.81,1.93,2.05,0,3.43-.97,4.14-2.92h2.52c-.33,1.66-1.08,2.95-2.27,3.87s-2.68,1.38-4.48,1.38c-2.39,0-4.23-.82-5.5-2.46-1.13-1.43-1.69-3.33-1.69-5.68,0-2.72,.74-4.84,2.21-6.35,1.29-1.31,2.96-1.97,5.01-1.97,1.49,0,2.81,.36,3.95,1.07,1.14,.72,1.95,1.7,2.44,2.95,.43,1.07,.65,2.68,.65,4.85v.09Zm-2.7-2.06c0-1.37-.4-2.48-1.21-3.33-.81-.85-1.85-1.27-3.12-1.27s-2.34,.41-3.15,1.24c-.81,.83-1.26,1.95-1.37,3.36h8.84Z"/>
      <polygon class="cls-3" points="296.16 74.98 296.16 95.8 294.84 96.96 293.55 96.96 293.55 78.11 289.74 81.31 288.36 79.59 293.83 74.98 296.16 74.98"/>
      <path class="cls-3" d="M312.49,86.07c-1.19,1.68-2.73,2.52-4.64,2.52-2.07,0-3.64-.75-4.73-2.24-.88-1.21-1.32-2.74-1.32-4.6,0-2.25,.66-4.02,1.97-5.31,1.17-1.19,2.71-1.78,4.64-1.78,2.85,0,4.77,1.29,5.77,3.87,.63,1.56,.95,3.78,.95,6.66,0,8.04-2.86,12.07-8.57,12.07-.51,0-1.18-.04-2-.12l-.98-1.26v-.92c.82,.12,1.52,.18,2.09,.18,2.46,0,4.19-.67,5.19-2.01,1-1.34,1.54-3.69,1.63-7.05m-4.11-9.06c-1.33,0-2.36,.56-3.1,1.69-.55,.88-.83,1.93-.83,3.16,0,1.31,.35,2.39,1.04,3.24,.7,.85,1.58,1.27,2.64,1.27,1.23,0,2.22-.4,2.98-1.2,.76-.8,1.14-1.83,1.14-3.1,0-3.38-1.29-5.07-3.87-5.07"/>
      <path class="cls-3" d="M330.61,86.07c-1.19,1.68-2.73,2.52-4.64,2.52-2.07,0-3.64-.75-4.73-2.24-.88-1.21-1.32-2.74-1.32-4.6,0-2.25,.66-4.02,1.97-5.31,1.17-1.19,2.71-1.78,4.64-1.78,2.85,0,4.77,1.29,5.77,3.87,.63,1.56,.95,3.78,.95,6.66,0,8.04-2.86,12.07-8.57,12.07-.51,0-1.18-.04-2-.12l-.98-1.26v-.92c.82,.12,1.52,.18,2.09,.18,2.46,0,4.19-.67,5.19-2.01,1-1.34,1.54-3.69,1.63-7.05m-4.11-9.06c-1.33,0-2.36,.56-3.1,1.69-.55,.88-.83,1.93-.83,3.16,0,1.31,.35,2.39,1.04,3.24,.7,.85,1.58,1.27,2.64,1.27,1.23,0,2.22-.4,2.98-1.2,.76-.8,1.14-1.83,1.14-3.1,0-3.38-1.29-5.07-3.87-5.07"/>
      <path class="cls-3" d="M348.72,86.07c-1.19,1.68-2.73,2.52-4.64,2.52-2.07,0-3.64-.75-4.73-2.24-.88-1.21-1.32-2.74-1.32-4.6,0-2.25,.66-4.02,1.97-5.31,1.17-1.19,2.71-1.78,4.64-1.78,2.85,0,4.77,1.29,5.77,3.87,.63,1.56,.95,3.78,.95,6.66,0,8.04-2.86,12.07-8.57,12.07-.51,0-1.18-.04-2-.12l-.98-1.26v-.92c.82,.12,1.52,.18,2.09,.18,2.46,0,4.19-.67,5.19-2.01,1-1.34,1.54-3.69,1.63-7.05m-4.11-9.06c-1.33,0-2.36,.56-3.1,1.69-.55,.88-.83,1.93-.83,3.16,0,1.31,.35,2.39,1.04,3.24,.7,.85,1.58,1.27,2.64,1.27,1.23,0,2.22-.4,2.98-1.2,.76-.8,1.14-1.83,1.14-3.1,0-3.38-1.29-5.07-3.87-5.07"/>
      <path class="cls-3" d="M16.7,13.99h-4c-.14-2.1-1.58-3.16-4.35-3.16-1.1,0-1.98,.22-2.62,.67-.65,.45-.97,1.04-.97,1.8s.27,1.28,.81,1.65c.54,.37,1.58,.69,3.13,.98l3.24,.61c1.91,.37,3.3,.99,4.17,1.88,.87,.89,1.3,2.14,1.3,3.77,0,2.22-.85,3.91-2.55,5.07-1.47,1.02-3.45,1.54-5.94,1.54-2.84,0-5-.65-6.49-1.97-1.29-1.14-2-2.72-2.11-4.75H4.48c.15,2.2,1.71,3.3,4.66,3.3,1.31,0,2.34-.24,3.09-.71,.74-.47,1.11-1.12,1.11-1.95s-.29-1.44-.88-1.88c-.59-.44-1.6-.8-3.03-1.07l-2.9-.55c-2.1-.39-3.61-1-4.5-1.84-.9-.84-1.35-2.05-1.35-3.64,0-2.14,.78-3.76,2.35-4.87,1.35-.97,3.18-1.45,5.5-1.45,2.8,0,4.91,.64,6.32,1.91,1.22,1.12,1.83,2.67,1.86,4.66"/>
      <path class="cls-3" d="M30.29,13.12v2.64h-2.7v8.55c0,.56,.1,.95,.3,1.16,.2,.21,.58,.32,1.12,.32,.45,0,1.02-.17,1.71-.52,.06-.04,.11-.07,.15-.09l.46,2.72c-1.22,.6-2.49,.9-3.83,.9-2.61,0-3.91-1.2-3.91-3.59V15.76h-1.97v-2.64h1.97v-2.55l4-2.29v4.84h2.7Z"/>
      <path class="cls-3" d="M50.08,21.84h-10.32c.06,1.23,.25,2.11,.58,2.64,.56,.85,1.44,1.28,2.64,1.28,1.49,0,2.48-.62,2.98-1.86h3.94c-.44,1.51-1.31,2.7-2.59,3.58-1.29,.88-2.79,1.32-4.51,1.32-2.34,0-4.13-.78-5.39-2.35-1.1-1.37-1.65-3.18-1.65-5.42,0-2.72,.71-4.83,2.15-6.32,1.25-1.27,2.9-1.91,4.95-1.91,1.56,0,2.94,.39,4.11,1.16,1.18,.77,2.02,1.85,2.52,3.24,.4,1.08,.61,2.39,.61,3.91,0,.19,0,.43-.03,.72m-4.14-2.64c-.19-2.24-1.23-3.36-3.1-3.36-1.76,0-2.76,1.12-3.01,3.36h6.11Z"/>
      <path class="cls-3" d="M69.08,21.84h-10.32c.06,1.23,.25,2.11,.58,2.64,.56,.85,1.44,1.28,2.64,1.28,1.49,0,2.48-.62,2.98-1.86h3.94c-.44,1.51-1.31,2.7-2.59,3.58-1.29,.88-2.79,1.32-4.51,1.32-2.34,0-4.13-.78-5.39-2.35-1.1-1.37-1.65-3.18-1.65-5.42,0-2.72,.71-4.83,2.15-6.32,1.25-1.27,2.9-1.91,4.95-1.91,1.56,0,2.94,.39,4.11,1.16,1.18,.77,2.02,1.85,2.52,3.24,.4,1.08,.61,2.39,.61,3.91,0,.19,0,.43-.03,.72m-4.14-2.64c-.19-2.24-1.23-3.36-3.1-3.36-1.76,0-2.76,1.12-3.01,3.36h6.11Z"/>
      <rect class="cls-3" x="74.78" y="7.74" width="4" height="20.74"/>
      <path class="cls-3" d="M93.96,28.48V7.74h9.24c2.1,0,3.74,.51,4.9,1.53,1.26,1.08,1.88,2.4,1.88,3.94,0,.89-.22,1.66-.65,2.3-.43,.65-1.16,1.3-2.19,1.96,2.28,1.35,3.42,3.03,3.42,5.04,0,1.82-.69,3.3-2.06,4.46-1.2,1-2.93,1.51-5.22,1.51h-9.33Zm4.26-17.18v4.69h4.66c1.99,0,2.98-.78,2.98-2.35s-.99-2.35-2.98-2.35h-4.66Zm0,8.26v5.36h5.1c2.1,0,3.16-.89,3.16-2.67s-1.05-2.7-3.16-2.7h-5.1Z"/>
      <path class="cls-3" d="M129.94,21.84h-10.32c.06,1.23,.25,2.11,.58,2.64,.56,.85,1.44,1.28,2.64,1.28,1.49,0,2.48-.62,2.98-1.86h3.94c-.44,1.51-1.31,2.7-2.59,3.58-1.29,.88-2.79,1.32-4.51,1.32-2.34,0-4.13-.78-5.39-2.35-1.1-1.37-1.65-3.18-1.65-5.42,0-2.72,.71-4.83,2.15-6.32,1.25-1.27,2.9-1.91,4.95-1.91,1.56,0,2.94,.39,4.11,1.16,1.18,.77,2.02,1.85,2.52,3.24,.4,1.08,.61,2.39,.61,3.91,0,.19,0,.43-.03,.72m-4.14-2.64c-.19-2.24-1.23-3.36-3.1-3.36-1.76,0-2.76,1.12-3.01,3.36h6.11Z"/>
      <path class="cls-3" d="M148.72,27.46v1.01h-4.35c-.29-.37-.44-.89-.46-1.57-1.06,1.26-2.61,1.88-4.64,1.88-1.48,0-2.68-.45-3.59-1.36-.74-.74-1.1-1.75-1.1-3.04,0-1.93,.77-3.3,2.32-4.11,.66-.35,1.96-.69,3.91-1.04l3.13-.58-.03-1.1c-.02-1.02-.79-1.53-2.32-1.53-.98,0-1.67,.15-2.07,.45-.4,.3-.64,.84-.74,1.64h-3.82c.23-3.53,2.41-5.3,6.55-5.3,2.28,0,3.92,.4,4.92,1.22,.91,.77,1.36,1.94,1.36,3.51v8.57c0,.7,.31,1.15,.93,1.36m-4.78-6.4l-2.93,.67c-.83,.19-1.45,.47-1.85,.84-.39,.37-.58,.82-.58,1.36,0,1.1,.71,1.65,2.14,1.65,2.07,0,3.13-1.13,3.19-3.39l.03-1.13Z"/>
      <path class="cls-3" d="M154.22,13.12h3.97v1.86c1.18-1.45,2.58-2.17,4.2-2.17,1.99,0,3.38,.75,4.17,2.26,1.16-1.51,2.65-2.26,4.49-2.26,1.54,0,2.75,.42,3.61,1.26,.86,.84,1.29,2,1.29,3.49v10.92h-3.97v-10.28c0-1.33-.72-2-2.17-2-.85,0-1.52,.27-2,.8-.48,.53-.72,1.27-.72,2.22v9.27h-4v-10.28c0-1.33-.71-2-2.14-2-.85,0-1.52,.27-2,.8-.48,.53-.72,1.27-.72,2.22v9.27h-4V13.12Z"/>
      <path class="cls-3" d="M195.21,17.64h-4.06c-.02-.62-.24-1.06-.67-1.32-.42-.26-1.16-.39-2.2-.39-1.53,0-2.29,.45-2.29,1.33,0,.52,.46,.91,1.39,1.16l5.04,1.42c2.01,.56,3.01,1.84,3.01,3.82,0,1.57-.61,2.83-1.83,3.8-1.14,.89-2.78,1.33-4.92,1.33-2.63,0-4.51-.39-5.65-1.16-1.12-.73-1.72-1.92-1.8-3.56h3.97c.12,.64,.39,1.06,.83,1.28,.43,.21,1.24,.32,2.42,.32,1.99,0,2.98-.47,2.98-1.42,0-.56-.44-.98-1.33-1.24l-4.75-1.45c-1.22-.36-2.05-.79-2.49-1.27-.58-.6-.87-1.41-.87-2.43,0-1.68,.64-2.97,1.91-3.88,1.12-.77,2.59-1.16,4.4-1.16,2.2,0,3.94,.49,5.21,1.48,1.1,.87,1.66,1.99,1.68,3.36"/>
      <path class="cls-3" d="M226.79,14.66h-4.06c-.56-2.39-2.04-3.59-4.43-3.59-1.8,0-3.17,.71-4.14,2.14-.83,1.26-1.24,2.93-1.24,5.01,0,2.36,.52,4.15,1.56,5.39,.91,1.06,2.13,1.59,3.68,1.59,1.33,0,2.4-.35,3.19-1.04,.79-.7,1.25-1.69,1.39-2.98h4.14c-.14,2.51-1.1,4.45-2.9,5.82-1.55,1.2-3.52,1.8-5.94,1.8-3.09,0-5.49-1.08-7.19-3.24-1.47-1.87-2.2-4.35-2.2-7.42,0-3.51,.97-6.24,2.9-8.17,1.68-1.7,3.87-2.55,6.58-2.55,3.2,0,5.63,1.07,7.27,3.21,.81,1.06,1.27,2.4,1.39,4.03"/>
      <path class="cls-3" d="M239.33,12.8c2.53,0,4.47,.81,5.82,2.43,1.18,1.39,1.77,3.25,1.77,5.56,0,2.66-.76,4.71-2.29,6.14-1.33,1.24-3.1,1.85-5.3,1.85-2.53,0-4.47-.8-5.82-2.4-1.18-1.41-1.77-3.27-1.77-5.59,0-2.65,.76-4.68,2.29-6.11,1.33-1.26,3.1-1.88,5.3-1.88m0,3.22c-1.08,0-1.95,.44-2.61,1.32-.66,.88-.98,2.03-.98,3.46,0,1.54,.37,2.76,1.1,3.65,.66,.75,1.49,1.13,2.49,1.13,1.08,0,1.96-.44,2.62-1.32,.67-.88,1-2.03,1-3.46,0-1.52-.38-2.73-1.13-3.62-.66-.77-1.49-1.16-2.49-1.16"/>
      <path class="cls-3" d="M252.69,13.12h4v2.17c1.08-1.66,2.61-2.49,4.58-2.49,1.76,0,3.09,.52,4,1.57,.77,.93,1.16,2.18,1.16,3.77v10.34h-3.97v-9.53c0-1.83-.86-2.75-2.58-2.75-.96,0-1.74,.28-2.32,.82-.58,.55-.87,1.28-.87,2.19v9.27h-4V13.12Z"/>
      <path class="cls-3" d="M285.69,17.64h-4.06c-.02-.62-.24-1.06-.67-1.32-.42-.26-1.16-.39-2.2-.39-1.53,0-2.29,.45-2.29,1.33,0,.52,.46,.91,1.39,1.16l5.04,1.42c2.01,.56,3.01,1.84,3.01,3.82,0,1.57-.61,2.83-1.83,3.8-1.14,.89-2.78,1.33-4.92,1.33-2.63,0-4.51-.39-5.65-1.16-1.12-.73-1.72-1.92-1.8-3.56h3.97c.12,.64,.39,1.06,.83,1.28,.43,.21,1.24,.32,2.42,.32,1.99,0,2.98-.47,2.98-1.42,0-.56-.44-.98-1.33-1.24l-4.75-1.45c-1.22-.36-2.05-.79-2.49-1.27-.58-.6-.87-1.41-.87-2.43,0-1.68,.64-2.97,1.91-3.88,1.12-.77,2.59-1.16,4.4-1.16,2.2,0,3.94,.49,5.22,1.48,1.1,.87,1.66,1.99,1.68,3.36"/>
      <path class="cls-3" d="M298.81,13.12v2.64h-2.7v8.55c0,.56,.1,.95,.3,1.16,.2,.21,.58,.32,1.12,.32,.45,0,1.02-.17,1.71-.52,.06-.04,.11-.07,.15-.09l.46,2.72c-1.22,.6-2.49,.9-3.83,.9-2.6,0-3.91-1.2-3.91-3.59V15.76h-1.97v-2.64h1.97v-2.55l4-2.29v4.84h2.7Z"/>
      <path class="cls-3" d="M305.24,13.12h4v2.93c.5-2.16,1.93-3.24,4.29-3.24h.78l.03,3.94c-.48-.1-.99-.14-1.51-.14-1.31,0-2.22,.24-2.72,.72-.58,.54-.87,1.52-.87,2.93v8.23h-4V13.12Z"/>
      <path class="cls-3" d="M332.7,28.48h-3.97v-2.17c-1.08,1.66-2.62,2.49-4.6,2.49-1.76,0-3.09-.52-4-1.56-.77-.91-1.16-2.15-1.16-3.74V13.12h4v9.53c0,1.83,.85,2.75,2.55,2.75,.96,0,1.74-.27,2.33-.81,.59-.54,.88-1.27,.88-2.2V13.12h3.97v15.35Z"/>
      <path class="cls-3" d="M352.29,18.74h-3.8c-.23-1-.56-1.71-1-2.11-.43-.4-1.05-.61-1.84-.61-1.2,0-2.03,.42-2.49,1.27-.5,.99-.75,2.19-.75,3.62s.28,2.59,.85,3.43c.57,.84,1.36,1.26,2.36,1.26,.79,0,1.41-.21,1.84-.62,.43-.42,.78-1.11,1.03-2.07h3.8c-.19,1.93-.97,3.43-2.32,4.49-1.18,.95-2.63,1.42-4.38,1.42-2.43,0-4.28-.78-5.53-2.35-1.1-1.35-1.65-3.17-1.65-5.47,0-2.78,.72-4.89,2.17-6.32,1.25-1.26,2.95-1.88,5.1-1.88s3.67,.59,4.87,1.77c1.02,1.04,1.6,2.43,1.74,4.17"/>
      <path class="cls-3" d="M365.15,13.12v2.64h-2.7v8.55c0,.56,.1,.95,.3,1.16,.2,.21,.58,.32,1.12,.32,.45,0,1.02-.17,1.71-.52,.06-.04,.11-.07,.15-.09l.46,2.72c-1.22,.6-2.49,.9-3.83,.9-2.6,0-3.91-1.2-3.91-3.59V15.76h-1.97v-2.64h1.97v-2.55l4-2.29v4.84h2.7Z"/>
      <path class="cls-3" d="M375.64,28.48h-4V13.12h4v15.35Zm-2.03-20.63c.52,0,.96,.18,1.32,.55,.36,.37,.53,.81,.53,1.33s-.18,.96-.53,1.32c-.36,.36-.8,.54-1.32,.54s-.97-.18-1.33-.54c-.37-.36-.55-.8-.55-1.32s.18-.97,.55-1.33c.36-.36,.81-.55,1.33-.55"/>
      <path class="cls-3" d="M389.08,12.8c2.53,0,4.47,.81,5.82,2.43,1.18,1.39,1.77,3.25,1.77,5.56,0,2.66-.76,4.71-2.29,6.14-1.33,1.24-3.1,1.85-5.3,1.85-2.53,0-4.47-.8-5.82-2.4-1.18-1.41-1.77-3.27-1.77-5.59,0-2.65,.76-4.68,2.29-6.11,1.33-1.26,3.1-1.88,5.3-1.88m0,3.22c-1.08,0-1.95,.44-2.61,1.32-.66,.88-.98,2.03-.98,3.46,0,1.54,.37,2.76,1.1,3.65,.66,.75,1.49,1.13,2.49,1.13,1.08,0,1.96-.44,2.62-1.32,.67-.88,1-2.03,1-3.46,0-1.52-.38-2.73-1.13-3.62-.66-.77-1.49-1.16-2.49-1.16"/>
      <path class="cls-3" d="M402.43,13.12h4v2.17c1.08-1.66,2.61-2.49,4.58-2.49,1.76,0,3.09,.52,4,1.57,.77,.93,1.16,2.18,1.16,3.77v10.34h-3.97v-9.53c0-1.83-.86-2.75-2.58-2.75-.96,0-1.74,.28-2.32,.82-.58,.55-.87,1.28-.87,2.19v9.27h-4V13.12Z"/>
      <path class="cls-3" d="M448.38,14.66h-4.06c-.56-2.39-2.04-3.59-4.43-3.59-1.8,0-3.17,.71-4.14,2.14-.83,1.26-1.24,2.93-1.24,5.01,0,2.36,.52,4.15,1.56,5.39,.91,1.06,2.13,1.59,3.68,1.59,1.33,0,2.4-.35,3.19-1.04,.79-.7,1.25-1.69,1.39-2.98h4.14c-.14,2.51-1.1,4.45-2.9,5.82-1.55,1.2-3.52,1.8-5.94,1.8-3.09,0-5.49-1.08-7.19-3.24-1.47-1.87-2.2-4.35-2.2-7.42,0-3.51,.97-6.24,2.9-8.17,1.68-1.7,3.87-2.55,6.58-2.55,3.2,0,5.63,1.07,7.27,3.21,.81,1.06,1.28,2.4,1.39,4.03"/>
      <path class="cls-3" d="M460.92,12.8c2.53,0,4.47,.81,5.82,2.43,1.18,1.39,1.77,3.25,1.77,5.56,0,2.66-.76,4.71-2.29,6.14-1.33,1.24-3.1,1.85-5.3,1.85-2.53,0-4.47-.8-5.82-2.4-1.18-1.41-1.77-3.27-1.77-5.59,0-2.65,.76-4.68,2.29-6.11,1.33-1.26,3.1-1.88,5.3-1.88m0,3.22c-1.08,0-1.95,.44-2.61,1.32-.66,.88-.98,2.03-.98,3.46,0,1.54,.37,2.76,1.1,3.65,.66,.75,1.49,1.13,2.49,1.13,1.08,0,1.96-.44,2.62-1.32,.67-.88,1-2.03,1-3.46,0-1.52-.38-2.73-1.13-3.62-.66-.77-1.49-1.16-2.49-1.16"/>
      <path class="cls-3" d="M476.33,24.89c.52,0,.97,.18,1.33,.54,.37,.36,.55,.8,.55,1.32s-.18,.96-.55,1.33c-.37,.37-.81,.55-1.33,.55s-.94-.18-1.3-.55c-.36-.37-.55-.81-.55-1.33s.18-.96,.53-1.32c.36-.36,.8-.54,1.32-.54"/>
      <polygon class="cls-3" points="497.6 7.74 497.6 24.92 507.53 24.92 507.53 28.48 493.34 28.48 493.34 7.74 497.6 7.74"/>
      <path class="cls-3" d="M519.82,13.12v2.64h-2.7v8.55c0,.56,.1,.95,.3,1.16,.2,.21,.58,.32,1.12,.32,.45,0,1.02-.17,1.71-.52,.06-.04,.11-.07,.15-.09l.46,2.72c-1.22,.6-2.49,.9-3.83,.9-2.6,0-3.91-1.2-3.91-3.59V15.76h-1.97v-2.64h1.97v-2.55l4-2.29v4.84h2.7Z"/>
      <path class="cls-3" d="M539.98,7.74V28.48h-4v-1.71c-.93,1.35-2.33,2.03-4.2,2.03-2.03,0-3.66-.85-4.9-2.55-1.06-1.45-1.59-3.25-1.59-5.42,0-2.57,.68-4.6,2.03-6.08,1.18-1.29,2.65-1.94,4.43-1.94,1.87,0,3.28,.71,4.23,2.15V7.74h4Zm-7.33,8.34c-1.01,0-1.82,.43-2.44,1.3-.62,.87-.93,2.01-.93,3.42s.3,2.52,.91,3.37c.61,.86,1.42,1.29,2.45,1.29s1.84-.42,2.45-1.27c.61-.85,.91-1.98,.91-3.39s-.31-2.57-.93-3.43c-.62-.86-1.43-1.29-2.43-1.29"/>
      <path class="cls-3" d="M11.82,44.51v8.21c0,1.63-.62,2.9-1.86,3.82-1.01,.76-2.32,1.14-3.93,1.14-2.12,0-3.76-.77-4.91-2.31-.74-1.12-1.11-2.41-1.11-3.88,0-1.98,.66-3.63,1.99-4.94,1.19-1.17,2.62-1.75,4.3-1.75,.87,0,1.66,.19,2.39,.58l1.11-.88h2.02Zm-6.83-5.12c.57,0,1.05,.21,1.46,.61s.61,.89,.61,1.46-.2,1.05-.61,1.46c-.41,.4-.9,.61-1.46,.61s-1.07-.21-1.47-.61c-.4-.41-.6-.9-.6-1.46s.2-1.08,.6-1.47c.4-.4,.89-.6,1.47-.6m2.74,9.14c-.49-.14-.9-.21-1.22-.21-.74,0-1.35,.28-1.81,.85-.46,.57-.69,1.33-.69,2.28,0,.87,.19,1.55,.56,2.06,.37,.5,.86,.76,1.46,.76,.51,0,.94-.17,1.28-.51,.28-.3,.42-.65,.42-1.06v-4.17Zm2.02-9.14c.57,0,1.05,.21,1.46,.61,.41,.4,.61,.89,.61,1.46s-.2,1.05-.61,1.46c-.41,.4-.89,.61-1.46,.61s-1.08-.21-1.47-.61c-.4-.41-.6-.9-.6-1.46s.2-1.08,.6-1.47c.4-.4,.89-.6,1.47-.6"/>
      <path class="cls-3" d="M17.66,45.07c.46-.11,1.1-.16,1.91-.16,2.18,0,3.93,.68,5.26,2.05,1.19,1.22,1.78,2.77,1.78,4.65v2.55c0,.97-.35,1.78-1.06,2.42-.64,.58-1.38,.88-2.23,.88H14.97v-3.43h7.17c.25,0,.37-.12,.37-.37v-1.73c0-1.08-.33-1.96-.99-2.65-.67-.69-1.53-1.04-2.59-1.04-.55,0-.97,.04-1.27,.11v-3.27Z"/>
      <path class="cls-3" d="M37.89,57.47c-.58,.14-1.13,.21-1.65,.21-1.79,0-3.28-.75-4.46-2.26-.99-1.24-1.49-2.65-1.49-4.22,0-1.81,.55-3.29,1.65-4.46,1.17-1.22,2.7-1.83,4.6-1.83,1.43,0,2.64,.36,3.61,1.06,1.31,.92,1.97,2.22,1.97,3.9v6.61c0,2.39-.81,4.25-2.44,5.58-1.36,1.13-3.08,1.7-5.15,1.7l-.69-.05-1.67-2.1v-1.41c.05,.02,.15,.04,.29,.05,.46,.09,.87,.13,1.22,.13,1.5-.04,2.61-.42,3.32-1.17,.42-.44,.73-1.03,.9-1.75m.13-7.57c0-.46-.15-.84-.45-1.14-.28-.28-.64-.43-1.06-.43-.67,0-1.2,.24-1.59,.73-.39,.49-.58,1.16-.58,2.03,0,.96,.23,1.73,.69,2.33,.46,.59,1.06,.89,1.8,.89,.37,0,.77-.06,1.2-.19v-4.22Z"/>
      <path class="cls-3" d="M47.96,45.07c.46-.11,1.1-.16,1.91-.16,2.18,0,3.93,.68,5.26,2.05,1.19,1.22,1.78,2.77,1.78,4.65v1.3c0,.49,.01,.87,.03,1.11h.67v3.43h-.35l-.98-1.22h-.08c-.16,.18-.3,.33-.42,.45-.62,.5-1.32,.75-2.1,.77h-8.39v-3.43h7.17c.25,0,.37-.12,.37-.37v-1.73c0-1.08-.33-1.96-.99-2.65-.67-.69-1.53-1.04-2.59-1.04-.55,0-.97,.04-1.27,.11v-3.27Z"/>
      <path class="cls-3" d="M60.92,45.68c1.68-.51,3.23-.77,4.65-.77,2.11,0,3.89,.67,5.34,1.99,1.35,1.24,2.02,2.75,2.02,4.54v2.34c0,.07,.01,.15,.03,.24h.82v3.42h-.53l-.98-1.22h-.08c-.66,.81-1.51,1.22-2.58,1.22h-12.21v-3.42h11.05c.25,0,.37-.12,.37-.37v-1.75c0-1.01-.4-1.85-1.21-2.51-.81-.66-1.81-.99-3.02-.99-.99,0-2.21,.19-3.66,.56v-3.27Z"/>
      <path class="cls-3" d="M77.86,54.02c-.16-.8-.24-1.76-.24-2.9,0-2.05,.67-3.65,2.02-4.81,1.1-.92,2.43-1.38,4.01-1.38,1.77,0,3.16,.42,4.17,1.27,1.1,.94,1.65,2.16,1.65,3.67v3.77c0,.11,.04,.2,.11,.27,.09,.07,.2,.11,.32,.11h.43v3.43h-1.62c-.81,0-1.54-.27-2.18-.8-.83,1.06-1.98,1.59-3.45,1.59s-2.66-.56-3.69-1.67h-.11l-.69,.88h-5.02v-3.43h4.3Zm7.51-4.12c0-.41-.13-.77-.4-1.09-.3-.32-.71-.48-1.22-.48-.65,0-1.17,.26-1.54,.79-.37,.52-.56,1.24-.56,2.17,0,2.36,.64,3.53,1.91,3.53,.62,0,1.22-.27,1.81-.8v-4.12Z"/>
      <path class="cls-3" d="M99,38.43v15.72c0,.78-.25,1.48-.74,2.1-.67,.8-1.53,1.2-2.58,1.2h-5.55v-3.43h4.38c.11,0,.19-.03,.26-.08,.09-.07,.13-.17,.13-.29v-15.22h4.09Z"/>
      <polygon class="cls-3" points="107.39 38.43 107.39 56.44 105.32 58.11 103.3 58.11 103.3 38.43 107.39 38.43"/>
      <path class="cls-3" d="M142.58,45.23v8.92c0,.82-.27,1.52-.8,2.12-.66,.78-1.49,1.17-2.5,1.17h-14.6c-1.24,0-2.33-.4-3.27-1.2-1.2-1.02-1.81-2.35-1.81-3.96v-3.48l2.07-1.67h2.02v5.15c0,.53,.19,.96,.56,1.3,.34,.28,.69,.42,1.06,.42h12.77c.27,0,.4-.12,.4-.37v-8.42h4.09Zm-13.86-.72c.58,0,1.08,.21,1.47,.61,.4,.4,.6,.89,.6,1.46s-.2,1.07-.6,1.47c-.4,.4-.89,.6-1.47,.6s-1.05-.2-1.46-.6c-.41-.4-.61-.89-.61-1.47s.2-1.05,.61-1.46c.41-.41,.89-.61,1.46-.61m4.75,0c.58,0,1.07,.21,1.47,.61,.4,.4,.6,.89,.6,1.46s-.2,1.07-.6,1.47c-.4,.4-.89,.6-1.47,.6s-1.05-.2-1.46-.6c-.41-.4-.61-.89-.61-1.47s.21-1.05,.61-1.46c.4-.41,.89-.61,1.46-.61"/>
      <polygon class="cls-3" points="150.97 38.43 150.97 56.44 148.89 58.11 146.88 58.11 146.88 38.43 150.97 38.43"/>
      <path class="cls-3" d="M157.84,55.3c-.5-.32-.93-.82-1.3-1.51-.46-.99-.69-1.95-.69-2.87,0-1.98,.64-3.49,1.91-4.51,1.08-.87,2.47-1.3,4.17-1.3,.64,0,1.45,.11,2.45,.32v3.21c-.76-.14-1.35-.21-1.75-.21-.96,0-1.64,.21-2.06,.64-.41,.42-.62,1.13-.62,2.12,0,.83,.22,1.48,.66,1.95,.44,.47,1.05,.7,1.83,.7,.11,0,.21,0,.32-.03,1.34-.2,2.54-.29,3.58-.29,.16,0,.4,0,.72,.03h.11v1.41l-1.65,2.05c-1.17,.07-2.36,.27-3.56,.61-1.66,.42-3.36,1.22-5.07,2.39l-1.99-3.13c1.01-.62,1.99-1.14,2.95-1.57"/>
      <path class="cls-3" d="M174.28,38.43v15.22s0,.09,.03,.16l.03,.03c.05,.12,.16,.19,.32,.19h.98v3.43h-2.15c-.87,0-1.63-.31-2.28-.93-.67-.65-1.01-1.44-1.01-2.37v-15.72h4.09Z"/>
      <path class="cls-3" d="M206.18,45.23v7.78c0,.18,0,.47,.03,.88v.13h1.33v3.43h-1.01l-.98-1.25h-.08c-.65,.83-1.52,1.25-2.58,1.25h-6.11l-.98-1.25h-.08c-.65,.83-1.51,1.25-2.58,1.25h-6.11l-.98-1.25h-.08c-.65,.83-1.51,1.25-2.58,1.25h-7.97v-3.43h6.8c.25,0,.37-.12,.37-.37v-5.36h4.09v4.75c0,.18,0,.44,.03,.8v.19h5.26c.25,0,.37-.12,.37-.37v-6.9h4.09v6.16c0,.3,0,.67,.03,1.12h5.26c.25,0,.37-.12,.37-.37v-8.42h4.09Zm-14.1-5.84c.57,0,1.05,.2,1.45,.6,.4,.4,.6,.89,.6,1.47s-.2,1.07-.6,1.47c-.4,.4-.88,.6-1.45,.6s-1.08-.21-1.48-.61-.61-.9-.61-1.46,.2-1.05,.61-1.46c.4-.41,.9-.61,1.48-.61m2.34-3.74c.53,0,.98,.18,1.34,.55,.36,.36,.54,.81,.54,1.34s-.18,.95-.54,1.32c-.36,.36-.81,.54-1.34,.54s-.95-.18-1.32-.54-.54-.8-.54-1.32,.18-.98,.54-1.34c.36-.36,.8-.55,1.32-.55m2.36,3.74c.58,0,1.07,.21,1.47,.61,.4,.4,.6,.89,.6,1.46s-.2,1.05-.6,1.46c-.4,.4-.89,.61-1.47,.61s-1.05-.21-1.46-.61c-.41-.41-.61-.9-.61-1.46s.2-1.08,.61-1.47c.4-.4,.89-.6,1.46-.6"/>
      <path class="cls-3" d="M216.19,45.23v8.92c0,.78-.26,1.48-.77,2.1-.67,.8-1.52,1.2-2.55,1.2h-5.55v-3.43h4.38c.11,0,.19-.03,.27-.08,.09-.07,.13-.17,.13-.29v-8.42h4.09Zm-2.07-5.84c.58,0,1.07,.2,1.47,.6,.4,.4,.6,.89,.6,1.47s-.2,1.05-.6,1.46c-.4,.4-.89,.61-1.47,.61s-1.05-.21-1.46-.61c-.41-.41-.61-.9-.61-1.46s.2-1.05,.61-1.46c.41-.41,.89-.61,1.46-.61"/>
      <path class="cls-3" d="M234.35,38.43v14.85c0,.16,0,.41,.03,.74h1.33v3.42h-1.01l-.98-1.25h-.08c-.32,.43-.73,.74-1.25,.96-.42,.2-.85,.29-1.27,.29h-9.85l-1.67-2.07v-1.35h5.84l-4.2-12.32h3.74l4.2,12.32h.72c.12,0,.22-.04,.29-.11,.05-.11,.08-.2,.08-.27v-15.21h4.09Zm-7.52,25.31c-.23-.51-.34-.98-.34-1.38,0-.78,.23-1.42,.69-1.91,.46-.49,1.05-.74,1.78-.74,.51,0,1.06,.08,1.65,.24v1.67c-.42-.12-.75-.18-.98-.18-.67,0-1.01,.38-1.01,1.14,0,.34,.07,.59,.21,.77,.16,.26,.43,.4,.8,.4h1.86v.8l-.72,.9h-4.89v-1.7h.96Z"/>
      <path class="cls-3" d="M245,38.43v15.72c0,.78-.25,1.48-.74,2.1-.67,.8-1.53,1.2-2.58,1.2h-5.55v-3.43h4.38c.11,0,.19-.03,.26-.08,.09-.07,.13-.17,.13-.29v-15.22h4.09Z"/>
      <path class="cls-3" d="M268.69,44.51v9.14c0,.11,.04,.2,.11,.27,.07,.07,.18,.11,.32,.11h.9v3.43h-2.1c-.9,0-1.73-.35-2.47-1.06-.87,.87-1.91,1.3-3.13,1.3h-.08c-1.77,0-3.16-.73-4.17-2.2-.82-1.15-1.22-2.52-1.22-4.11,0-1.95,.62-3.56,1.86-4.84,1.11-1.15,2.51-1.72,4.17-1.72,.9,0,1.8,.19,2.68,.56l1.09-.85h2.04Zm-6.85-5.12c.59,0,1.08,.21,1.49,.61,.41,.4,.61,.89,.61,1.46s-.2,1.05-.61,1.46c-.41,.4-.9,.61-1.49,.61s-1.05-.21-1.46-.61c-.41-.41-.61-.9-.61-1.46s.2-1.08,.61-1.47c.41-.4,.89-.6,1.46-.6m2.74,9.14c-.42-.11-.82-.16-1.2-.16-.78,0-1.39,.26-1.83,.8-.44,.53-.66,1.27-.66,2.2,0,.88,.24,1.61,.73,2.18,.49,.57,1.12,.85,1.9,.85,.3,0,.66-.04,1.06-.13v-5.74Zm2.02-9.14c.58,0,1.08,.21,1.49,.61,.41,.4,.61,.89,.61,1.46s-.2,1.05-.61,1.46c-.41,.4-.9,.61-1.49,.61s-1.05-.21-1.45-.61c-.4-.41-.6-.9-.6-1.46s.2-1.08,.6-1.47c.4-.4,.88-.6,1.45-.6"/>
      <path class="cls-3" d="M278.7,45.23v8.92c0,.78-.26,1.48-.77,2.1-.67,.8-1.52,1.2-2.55,1.2h-5.55v-3.43h4.38c.11,0,.19-.03,.26-.08,.09-.07,.13-.17,.13-.29v-8.42h4.09Zm-6.72,13.44c.57,0,1.05,.2,1.46,.61,.41,.41,.61,.9,.61,1.49s-.2,1.05-.61,1.46c-.41,.4-.89,.61-1.46,.61s-1.08-.21-1.47-.61c-.4-.41-.6-.9-.6-1.46s.2-1.08,.6-1.49c.4-.41,.89-.61,1.47-.61m4.76,0c.57,0,1.05,.2,1.46,.61,.41,.41,.61,.9,.61,1.49s-.2,1.05-.61,1.46c-.41,.4-.89,.61-1.46,.61s-1.08-.21-1.48-.61c-.4-.41-.6-.9-.6-1.46s.2-1.08,.6-1.49c.4-.41,.89-.61,1.48-.61"/>
      <path class="cls-3" d="M284.94,45.07c.46-.11,1.1-.16,1.91-.16,2.18,0,3.93,.68,5.26,2.05,1.19,1.22,1.78,2.77,1.78,4.65v1.3c0,.49,.01,.87,.03,1.11h.66v3.43h-.35l-.98-1.22h-.08c-.16,.18-.3,.33-.42,.45-.62,.5-1.32,.75-2.1,.77h-8.39v-3.43h7.17c.25,0,.37-.12,.37-.37v-1.73c0-1.08-.33-1.96-.99-2.65-.66-.69-1.53-1.04-2.59-1.04-.55,0-.97,.04-1.27,.11v-3.27Z"/>
      <path class="cls-3" d="M303.24,45.23v8.92c0,.78-.26,1.48-.77,2.1-.67,.8-1.52,1.2-2.55,1.2h-5.55v-3.43h4.38c.11,0,.19-.03,.26-.08,.09-.07,.13-.17,.13-.29v-8.42h4.09Zm-6.72,13.44c.57,0,1.05,.2,1.46,.61,.41,.41,.61,.9,.61,1.49s-.2,1.05-.61,1.46c-.41,.4-.89,.61-1.46,.61s-1.08-.21-1.47-.61c-.4-.41-.6-.9-.6-1.46s.2-1.08,.6-1.49c.4-.41,.89-.61,1.47-.61m4.76,0c.57,0,1.05,.2,1.46,.61,.41,.41,.61,.9,.61,1.49s-.2,1.05-.61,1.46c-.41,.4-.89,.61-1.46,.61s-1.08-.21-1.48-.61c-.4-.41-.6-.9-.6-1.46s.2-1.08,.6-1.49c.4-.41,.89-.61,1.48-.61"/>
      <path class="cls-3" d="M309.48,45.07c.46-.11,1.1-.16,1.91-.16,2.18,0,3.93,.68,5.26,2.05,1.19,1.22,1.78,2.77,1.78,4.65v1.3c0,.49,.01,.87,.03,1.11h.66v3.43h-.35l-.98-1.22h-.08c-.16,.18-.3,.33-.42,.45-.62,.5-1.32,.75-2.1,.77h-8.39v-3.43h7.17c.25,0,.37-.12,.37-.37v-1.73c0-1.08-.33-1.96-.99-2.65-.66-.69-1.53-1.04-2.59-1.04-.55,0-.97,.04-1.27,.11v-3.27Z"/>
      <path class="cls-3" d="M322.44,45.68c1.68-.51,3.23-.77,4.65-.77,2.11,0,3.89,.67,5.34,1.99,1.35,1.24,2.02,2.75,2.02,4.54v2.34c0,.07,.01,.15,.03,.24h.82v3.42h-.53l-.98-1.22h-.08c-.66,.81-1.51,1.22-2.58,1.22h-12.22v-3.42h11.05c.25,0,.37-.12,.37-.37v-1.75c0-1.01-.4-1.85-1.21-2.51-.81-.66-1.81-.99-3.02-.99-.99,0-2.21,.19-3.66,.56v-3.27Z"/>
      <path class="cls-3" d="M343.95,38.43v15.72c0,.78-.25,1.48-.74,2.1-.67,.8-1.53,1.2-2.58,1.2h-5.55v-3.43h4.38c.11,0,.19-.03,.26-.08,.09-.07,.13-.17,.13-.29v-15.22h4.09Z"/>
      <polygon class="cls-3" points="352.34 38.43 352.34 56.44 350.27 58.11 348.25 58.11 348.25 38.43 352.34 38.43"/>
      <path class="cls-3" d="M372.39,45.23v11.21c0,2.41-.78,4.25-2.34,5.52-.9,.76-1.98,1.29-3.21,1.59-.62,.14-1.31,.21-2.07,.21l-.69-.05-1.67-2.1v-1.41c.05,.02,.15,.04,.29,.05,.46,.09,.87,.13,1.22,.13,1.47-.04,2.56-.4,3.26-1.09,.73-.73,1.09-1.84,1.09-3.35v-10.73h4.12Z"/>
      <path class="cls-3" d="M382.34,57.45c-1.88,0-3.39-.67-4.54-1.99-.99-1.13-1.49-2.49-1.49-4.06,0-2,.52-3.54,1.57-4.62,1.22-1.24,2.78-1.86,4.67-1.86,1.36,0,2.51,.31,3.45,.93,1.42,.94,2.12,2.28,2.12,4.04v4.14h.85v3.43h-.88c-.21,1.95-.99,3.47-2.34,4.57-.82,.69-1.83,1.19-3.03,1.49-.81,.21-1.67,.32-2.58,.32-.39,0-.8-.03-1.22-.08l-1.78-2.18v-1.43c.81,.18,1.59,.26,2.34,.26,2.48,0,3.95-.98,4.41-2.95h-1.57Zm1.7-7.54c0-.55-.2-.97-.61-1.27-.26-.19-.57-.29-.9-.29-.65,0-1.18,.25-1.58,.76-.4,.5-.6,1.17-.6,2.01,0,1.95,.96,2.92,2.89,2.92h.8v-4.12Z"/>
      <rect class="cls-3" x="388.8" y="54.02" width="4.91" height="3.43"/>
      <path class="cls-3" d="M424.28,45.23v7.78c0,.18,0,.47,.03,.88v.13h1.33v3.43h-1.01l-.98-1.25h-.08c-.65,.83-1.52,1.25-2.58,1.25h-6.11l-.98-1.25h-.08c-.66,.83-1.51,1.25-2.58,1.25h-6.11l-.98-1.25h-.08c-.65,.83-1.51,1.25-2.58,1.25h-7.97v-3.43h6.8c.25,0,.37-.12,.37-.37v-5.36h4.09v4.75c0,.18,0,.44,.03,.8v.19h5.26c.25,0,.37-.12,.37-.37v-6.9h4.09v6.16c0,.3,0,.67,.03,1.11h5.26c.25,0,.37-.12,.37-.37v-8.42h4.09Z"/>
      <path class="cls-3" d="M428.95,45.68c1.68-.51,3.23-.77,4.65-.77,2.11,0,3.89,.66,5.34,1.99,1.35,1.24,2.02,2.75,2.02,4.54v2.34c0,.07,0,.15,.03,.24h.82v3.43h-.53l-.98-1.22h-.08c-.66,.81-1.51,1.22-2.58,1.22h-12.22v-3.43h11.05c.25,0,.37-.12,.37-.37v-1.75c0-1.01-.4-1.85-1.21-2.51-.81-.66-1.81-.99-3.02-.99-.99,0-2.21,.19-3.66,.56v-3.27Zm4.25,12.99c.57,0,1.05,.2,1.46,.61,.4,.41,.61,.9,.61,1.49s-.21,1.05-.61,1.46c-.41,.4-.89,.61-1.46,.61s-1.08-.21-1.47-.61c-.4-.41-.6-.9-.6-1.46s.2-1.08,.6-1.49c.4-.41,.89-.61,1.47-.61"/>
      <path class="cls-3" d="M450.46,38.43v15.72c0,.78-.25,1.48-.74,2.1-.67,.8-1.53,1.2-2.58,1.2h-5.55v-3.43h4.38c.11,0,.19-.03,.26-.08,.09-.07,.13-.17,.13-.29v-15.22h4.09Z"/>
      <polygon class="cls-3" points="458.85 38.43 458.85 56.44 456.78 58.11 454.76 58.11 454.76 38.43 458.85 38.43"/>
      <path class="cls-3" d="M482.54,44.51v9.14c0,.11,.04,.2,.11,.27,.07,.07,.18,.11,.32,.11h.9v3.43h-2.1c-.9,0-1.73-.35-2.47-1.06-.87,.87-1.91,1.3-3.13,1.3h-.08c-1.77,0-3.16-.73-4.17-2.2-.82-1.15-1.22-2.52-1.22-4.11,0-1.95,.62-3.56,1.86-4.84,1.11-1.15,2.51-1.72,4.17-1.72,.9,0,1.8,.19,2.68,.56l1.09-.85h2.04Zm-6.85-5.12c.59,0,1.08,.21,1.49,.61,.41,.4,.61,.89,.61,1.46s-.2,1.05-.61,1.46c-.41,.4-.9,.61-1.49,.61s-1.05-.21-1.46-.61c-.41-.41-.61-.9-.61-1.46s.2-1.08,.61-1.47c.41-.4,.89-.6,1.46-.6m2.74,9.14c-.42-.11-.82-.16-1.2-.16-.78,0-1.39,.26-1.83,.8-.44,.53-.66,1.27-.66,2.2,0,.88,.24,1.61,.73,2.18,.49,.57,1.12,.85,1.9,.85,.3,0,.66-.04,1.06-.13v-5.74Zm2.02-9.14c.58,0,1.08,.21,1.49,.61,.41,.4,.61,.89,.61,1.46s-.2,1.05-.61,1.46c-.41,.4-.9,.61-1.49,.61s-1.05-.21-1.45-.61c-.4-.41-.6-.9-.6-1.46s.2-1.08,.6-1.47c.4-.4,.88-.6,1.45-.6"/>
      <path class="cls-3" d="M496.91,38.04v3.85l-4.57,2.87c1.88,.92,3.4,2.27,4.57,4.04,1.08,1.63,1.62,3.31,1.62,5.05,0,1.04-.31,1.91-.93,2.59-.62,.68-1.42,1.02-2.39,1.02h-11.53v-3.42h10.33c.25,0,.37-.13,.37-.4,0-1.38-.66-2.68-1.99-3.9-1.56-1.38-3.3-2.15-5.23-2.31-.16-.02-.24-.11-.24-.26v-3.32l9.98-5.79Z"/>
      <path class="cls-3" d="M509.1,45.23v8.79h1.33v3.43h-1.38c-.2,2.03-1.08,3.65-2.66,4.83-1.33,.97-2.89,1.46-4.67,1.46-.2,0-.5,0-.93-.03l-1.67-2.1v-1.41c.05,.02,.15,.04,.29,.05,.46,.09,.87,.13,1.22,.13,1.47-.04,2.56-.41,3.26-1.12,.73-.73,1.09-1.83,1.09-3.32v-10.73h4.12Z"/>
      <path class="cls-3" d="M540.99,45.23v8.92c0,.9-.32,1.68-.97,2.33-.65,.65-1.42,.97-2.33,.97h-5.97l-1.12-1.25h-.08c-.65,.83-1.51,1.25-2.58,1.25h-5.97l-1.11-1.25h-.08c-.66,.83-1.51,1.25-2.58,1.25h-7.97v-3.43h6.8c.25,0,.37-.12,.37-.37v-5.36h4.09v4.17c0,.27,0,.68,.03,1.25v.32h5.26c.25,0,.37-.12,.37-.37v-6.9h4.09v6.16c0,.3,0,.67,.03,1.12h5.26c.25,0,.37-.12,.37-.37v-8.42h4.09Zm-14.1-5.84c.57,0,1.05,.2,1.45,.6,.4,.4,.6,.89,.6,1.47s-.2,1.07-.6,1.47c-.4,.4-.88,.6-1.45,.6s-1.08-.21-1.48-.61c-.41-.41-.61-.9-.61-1.46s.2-1.05,.61-1.46c.41-.41,.9-.61,1.48-.61m2.34-3.74c.53,0,.98,.18,1.34,.55,.36,.36,.54,.81,.54,1.34s-.18,.95-.54,1.32c-.36,.36-.81,.54-1.34,.54s-.95-.18-1.32-.54c-.36-.36-.54-.8-.54-1.32s.18-.98,.54-1.34c.36-.36,.8-.55,1.32-.55m2.36,3.74c.58,0,1.07,.21,1.47,.61,.4,.4,.6,.89,.6,1.46s-.2,1.05-.6,1.46c-.4,.4-.89,.61-1.47,.61s-1.05-.21-1.46-.61c-.41-.41-.61-.9-.61-1.46s.2-1.08,.61-1.47c.41-.4,.89-.6,1.46-.6"/>
    </g>
  </g>
</svg>