<svg xmlns="http://www.w3.org/2000/svg" version="1.1" xmlns:xlink="http://www.w3.org/1999/xlink" width="42" height="42" x="0" y="0" viewBox="0 0 96 96" style="enable-background:new 0 0 512 512" xml:space="preserve" class=""><g><path d="M80.401 65.617h-5.597a1.519 1.519 0 1 0 0 3.038h5.597a1.519 1.519 0 1 0 0-3.038zM80.401 73.823h-5.597a1.519 1.519 0 1 0 0 3.038h5.597a1.519 1.519 0 1 0 0-3.038zM74.804 59.646h5.236a1.519 1.519 0 1 0 0-3.038h-5.236a1.519 1.519 0 1 0 0 3.038zM73.285 48c0 .839.68 1.519 1.519 1.519h5.236a1.519 1.519 0 1 0 0-3.038h-5.236c-.839 0-1.519.68-1.519 1.519zM65.383 46.481h-5.235a1.519 1.519 0 1 0 0 3.038h5.235a1.519 1.519 0 1 0 0-3.038zM65.383 38.38h-5.235a1.519 1.519 0 1 0 0 3.038h5.235a1.519 1.519 0 1 0 0-3.038z" fill="#4069A6" opacity="1" data-original="#000000" class=""></path><path d="M88.502 12.051c-.839 0-1.519.68-1.519 1.519v4.557h-5.622v-6.582a1.519 1.519 0 1 0-3.038 0v6.582H62.958V9.519a1.518 1.518 0 1 0-3.038 0v8.608h-7.874a1.519 1.519 0 1 0 0 3.038h7.874v7.089s-6.26.044-6.442.121c-1.136.278-2 1.264-2 2.492v21.596h-1.106c-.84 0-1.519.68-1.519 1.519v13.556H41.12V63.19c.451-.209.851-.408 1.16-.592a20.854 20.854 0 0 0 2.25-1.545 1.52 1.52 0 0 0 .526-.817l2.383-9.464c.083-.33.053-.68-.085-.991a27.194 27.194 0 0 0-1.251-2.409c-.226-.378-.8-1.199-3.156-3.928a10.488 10.488 0 0 0-7.529-3.629s-16.257-1.48-22.667.115c-1.496.372-2.761 1.301-3.141 2.799l-1.725 6.818a3.741 3.741 0 0 0 1.133 3.716c.665.593 1.574 1.383 2.457 2.142v12.169c-1.415.086-2.783.672-3.793 1.68a5.9 5.9 0 0 0-1.699 3.712c-.01.071-.01 3.038 0 3.109a5.906 5.906 0 0 0 1.7 3.714c.998.995 2.347 1.576 3.746 1.673.447 3.672 3.548 6.538 7.338 6.538 3.778 0 6.87-2.845 7.332-6.499h24.442C51.003 85.155 54.095 88 57.873 88a7.395 7.395 0 0 0 5.173-2.115l24.382.09a2.596 2.596 0 0 0 2.593-2.593V13.57c0-.839-.68-1.519-1.519-1.519zm-1.519 9.114V34.41h-5.631l.009-13.246h5.622zm-8.66 0v7.089H62.958v-7.089zM64.955 78.463c-.917-3.062-3.726-5.313-7.082-5.313-2.46 0-4.63 1.216-5.981 3.066v-9.883h14.747v11.481a.65.65 0 0 1-.648.649zM51.892 63.295V55.5h5.888c1.652 0 3.19.813 4.115 2.174a2433.42 2433.42 0 0 1 3.807 5.621zm-13.809 4.242H14.516v-9.565c.082.059 14.394 6.572 14.394 6.572a10.417 10.417 0 0 0 7.605.4 72.88 72.88 0 0 0 1.568-.545zm5.399-18.631c.313.546.612 1.092.88 1.646l-2.122 8.43c-3.544 2.412-7.768 3.351-8.323 3.404l4.547-18.666c.819.43 1.569.995 2.184 1.708 2.279 2.639 2.756 3.347 2.834 3.478zm-32.65 1.382 1.725-6.816a.715.715 0 0 1 .593-.534c2.03-.265 5.466-.627 6.112-.694 0 0 16.2.632 16.28.637L30.88 62.015c-.238-.08-14.664-6.561-14.664-6.561-.713-.605-3.62-3.074-5.172-4.458a.708.708 0 0 1-.212-.708zm7.935 34.674c-2.419 0-4.387-1.968-4.387-4.387s1.968-4.387 4.387-4.387 4.388 1.968 4.388 4.387-1.969 4.387-4.388 4.387zm0-11.812c-3.346 0-6.148 2.239-7.074 5.287a2.83 2.83 0 0 1-1.86-.799 2.836 2.836 0 0 1-.825-1.99V73.39c0-.74.301-1.466.824-1.988a2.835 2.835 0 0 1 1.991-.827h37.031v7.888H25.85c-.917-3.062-3.727-5.313-7.083-5.313zm34.719 7.425c0-2.419 1.968-4.387 4.387-4.387s4.387 1.968 4.387 4.387c0 .949-.311 1.824-.826 2.543a1.492 1.492 0 0 0-.621.69 4.355 4.355 0 0 1-2.94 1.154 4.392 4.392 0 0 1-4.387-4.387zm33.497 2.362H64.878c.156-.461.264-.939.327-1.436h.786a3.69 3.69 0 0 0 3.686-3.687V64.216c0-.303-.091-.599-.26-.85 0 0-2.949-4.369-5.009-7.399a8 8 0 0 0-6.628-3.505h-3.263V31.291H78.314v6.157h8.669z" fill="#4069A6" opacity="1" data-original="#000000" class=""></path><path d="M18.767 77.593a2.984 2.984 0 0 0-2.981 2.983c0 1.644 1.337 2.981 2.981 2.981s2.982-1.337 2.982-2.981a2.985 2.985 0 0 0-2.982-2.983zm0 3.937a.956.956 0 1 1 .002-1.912.956.956 0 0 1-.002 1.912zM60.854 80.575c0-1.646-1.337-2.983-2.981-2.983s-2.982 1.337-2.982 2.983c0 1.644 1.338 2.981 2.982 2.981s2.981-1.337 2.981-2.981zm-2.981.955a.957.957 0 0 1 0-1.912.957.957 0 0 1 0 1.912z" fill="#4069A6" opacity="1" data-original="#000000" class=""></path></g></svg>