<svg xmlns="http://www.w3.org/2000/svg" version="1.1" xmlns:xlink="http://www.w3.org/1999/xlink" width="42" height="42" x="0" y="0" viewBox="0 0 64 64" style="enable-background:new 0 0 512 512" xml:space="preserve" class=""><g><path d="M58 34.486h-3.647c2.076-1.279 2.423-4.482.634-6.167l-5.104-5.105 2.253-2.252a2.97 2.97 0 0 0 3.405-.577l4.95-4.95a3.004 3.004 0 0 0 0-4.242l-2.828-2.828c-1.134-1.134-3.11-1.134-4.243 0l-4.95 4.95c-.893.866-1.136 2.297-.578 3.406l-2.251 2.251-5.104-5.103c-1.956-2.084-5.756-1.21-6.601 1.518L29.08 29.334a5.831 5.831 0 0 0-3.43-.837c-1.715-5.086-9.012-5.36-11.128-.442-4.197-2.116-9.361 1.817-8.431 6.43a4.008 4.008 0 0 0-4.092 4v4c0 1.201.542 2.267 1.382 3a3.975 3.975 0 0 0-1.382 3v4c0 2.206 1.794 4 4 4h23c1.2 0 2.266-.542 3-1.382.734.84 1.8 1.383 3 1.383h23c2.206 0 4-1.795 4-4v-4c0-1.2-.542-2.267-1.382-3a3.975 3.975 0 0 0 1.382-3v-4c0-2.206-1.794-4-4-4zm-8.116-19.757 4.95-4.95a1.004 1.004 0 0 1 1.414 0l2.828 2.828c.39.39.39 1.024 0 1.414l-4.949 4.95c-.39.39-1.024.39-1.415 0l-2.828-2.829a1.003 1.003 0 0 1 0-1.413zm-.707 3.535 1.414 1.414-7.071 7.071c-.39.39-1.024.39-1.414 0a1.002 1.002 0 0 1 0-1.414zM30.493 31.36c-.001 0 5.333-15.317 5.332-15.319.417-1.367 2.324-1.794 3.298-.758l5.104 5.103-3.535 3.535a3.003 3.003 0 0 0 0 4.242 3.002 3.002 0 0 0 4.242 0l3.535-3.534 5.104 5.104c1.034.976.61 2.881-.762 3.299l-22.147 7.71c-1.513.588-3.142-1.033-2.55-2.548l2.38-6.834zM12 29.486c.893 0 1.745.304 2.465.88.559.475 1.497.126 1.608-.599.825-4.343 7.065-4.333 7.852.02.084.55.67.942 1.208.803 1.152-.275 2.342.01 3.265.706l-1.11 3.19H20c-1.2 0-2.266.542-3 1.382a3.975 3.975 0 0 0-3-1.382H8.145c-.72-2.469 1.295-5.04 3.855-5zm-8 9c0-1.103.897-2 2-2h8c1.103 0 2 .897 2 2v4c0 1.103-.897 2-2 2H6c-1.103 0-2-.897-2-2zm27 14c0 1.103-.897 2-2 2H6c-1.103 0-2-.897-2-2v-4c0-1.103.897-2 2-2h23c1.103 0 2 .897 2 2zm-11-8c-1.103 0-2-.897-2-2v-4c0-1.103.897-2 2-2h6.592l-.367 1.053c-.96 2.493 1.133 5.39 3.77 5.315.159.413 14.366-4.85 14.91-4.953.178.253.067 4.207.095 4.585 0 1.103-.897 2-2 2zm40 8c0 1.103-.897 2-2 2H35c-1.103 0-2-.897-2-2v-4c0-1.103.897-2 2-2h23c1.103 0 2 .897 2 2zm0-10c0 1.103-.897 2-2 2h-9c-1.103 0-2-.897-2-2v-4c0-.631.304-1.217.807-1.595l1.16-.404L58 36.486c1.103 0 2 .897 2 2v4z" fill="#4069A6" opacity="1" data-original="#000000" class=""></path></g></svg>