<svg xmlns="http://www.w3.org/2000/svg" version="1.1" xmlns:xlink="http://www.w3.org/1999/xlink" width="42" height="42" x="0" y="0" viewBox="0 0 512.001 512.001" style="enable-background:new 0 0 512 512" xml:space="preserve" class=""><g><path d="M384.138 132.874 354.856 8.793a7.515 7.515 0 0 0-14.628 3.452l29.283 124.081a7.518 7.518 0 0 0 9.038 5.588 7.515 7.515 0 0 0 5.589-9.04zM470.721 499.755 389.845 157.05a7.52 7.52 0 0 0-9.04-5.588 7.515 7.515 0 0 0-5.588 9.04l80.876 342.704a7.518 7.518 0 0 0 9.039 5.588c4.04-.953 6.542-5 5.589-9.039zM61.869 445.229c-4.033-.951-8.087 1.548-9.04 5.588L41.28 499.755a7.515 7.515 0 0 0 14.627 3.452l11.549-48.938a7.514 7.514 0 0 0-5.587-9.04zM166.184 3.205c-4.032-.953-8.086 1.548-9.04 5.588L60.301 419.154a7.515 7.515 0 0 0 14.628 3.452l96.843-410.361a7.515 7.515 0 0 0-5.588-9.04zM511.715 499.436 372.903 8.474a7.515 7.515 0 1 0-14.462 4.089l138.812 490.962a7.518 7.518 0 0 0 7.227 5.472c.677 0 1.365-.092 2.049-.286a7.513 7.513 0 0 0 5.186-9.275zM148.373 3.288a7.515 7.515 0 0 0-9.275 5.187L.285 499.437a7.514 7.514 0 0 0 5.186 9.276 7.537 7.537 0 0 0 2.049.286 7.519 7.519 0 0 0 7.227-5.472L153.56 12.565a7.517 7.517 0 0 0-5.187-9.277zM275.455 10.287a7.49 7.49 0 0 0-7.742-7.28 7.513 7.513 0 0 0-7.28 7.742l.884 28.755h-10.632l.884-28.755a7.514 7.514 0 0 0-7.28-7.742c-4.098-.127-7.615 3.132-7.742 7.28l-1.122 36.502a7.512 7.512 0 0 0 7.512 7.746h26.131a7.517 7.517 0 0 0 7.511-7.746l-1.124-36.502zM277.158 65.665a7.513 7.513 0 0 0-7.511-7.283h-27.293a7.514 7.514 0 0 0-7.511 7.283l-1.974 64.086a7.515 7.515 0 0 0 7.511 7.747h31.241a7.518 7.518 0 0 0 7.511-7.747l-1.974-64.086zm-29.029 56.803 1.511-49.056h12.72l1.511 49.056h-15.742zM279.873 153.838a7.514 7.514 0 0 0-7.511-7.283h-32.724a7.515 7.515 0 0 0-7.511 7.283l-2.254 73.143a7.515 7.515 0 0 0 7.511 7.747h37.233a7.518 7.518 0 0 0 7.511-7.747l-2.255-73.143zm-34.74 65.86 1.792-58.114h18.151l1.792 58.114h-21.735zM283.17 260.978a7.513 7.513 0 0 0-7.511-7.284h-39.317a7.514 7.514 0 0 0-7.511 7.283l-2.745 89.245a7.512 7.512 0 0 0 7.51 7.747h44.808a7.517 7.517 0 0 0 7.511-7.746l-2.745-89.245zm-41.825 81.961 2.284-74.215h24.743l2.281 74.215h-29.308zM287.239 393.227a7.516 7.516 0 0 0-7.513-7.283h-47.452a7.514 7.514 0 0 0-7.511 7.283l-3.327 108.022a7.514 7.514 0 0 0 7.28 7.742c4.115.126 7.615-3.131 7.742-7.279l3.103-100.738h32.878l3.103 100.738a7.513 7.513 0 0 0 7.741 7.279 7.513 7.513 0 0 0 7.28-7.742l-3.324-108.022z" fill="#4069A6" opacity="1" data-original="#000000"></path></g></svg>